<mxfile host="app.diagrams.net" agent="Mozilla/5.0 (Windows NT 10.0; Win64; x64) AppleWebKit/537.36 (KHTML, like Gecko) Chrome/131.0.0.0 Safari/537.36" version="25.0.3">
  <diagram id="C5RBs43oDa-KdzZeNtuy" name="Page-1">
    <mxGraphModel dx="1243" dy="1277" grid="1" gridSize="10" guides="1" tooltips="1" connect="1" arrows="1" fold="1" page="1" pageScale="1" pageWidth="827" pageHeight="1169" math="0" shadow="0">
      <root>
        <mxCell id="WIyWlLk6GJQsqaUBKTNV-0" />
        <mxCell id="WIyWlLk6GJQsqaUBKTNV-1" parent="WIyWlLk6GJQsqaUBKTNV-0" />
        <mxCell id="9L50VuXP9v0viQyTFFjq-0" value="&lt;font face=&quot;Arial, sans-serif&quot;&gt;&lt;span style=&quot;white-space-collapse: preserve;&quot;&gt;&lt;b style=&quot;&quot;&gt;2no. persons must be always present while UCN_SA is operating.&lt;/b&gt;&lt;/span&gt;&lt;/font&gt;" style="rounded=0;whiteSpace=wrap;html=1;fontSize=12;glass=0;strokeWidth=1;shadow=0;" vertex="1" parent="WIyWlLk6GJQsqaUBKTNV-1">
          <mxGeometry x="410" y="422" width="170" height="50" as="geometry" />
        </mxCell>
        <mxCell id="9L50VuXP9v0viQyTFFjq-1" value="&lt;b&gt;Sanity Check&lt;/b&gt;" style="rounded=0;whiteSpace=wrap;html=1;fontSize=12;glass=0;strokeWidth=1;shadow=0;" vertex="1" parent="WIyWlLk6GJQsqaUBKTNV-1">
          <mxGeometry x="410" y="534" width="170" height="26" as="geometry" />
        </mxCell>
        <mxCell id="9L50VuXP9v0viQyTFFjq-2" value="&lt;b style=&quot;&quot;&gt;The 2no. person must pick and place the UCN_SA on the solar module.&lt;/b&gt;" style="rounded=0;whiteSpace=wrap;html=1;fontSize=12;glass=0;strokeWidth=1;shadow=0;" vertex="1" parent="WIyWlLk6GJQsqaUBKTNV-1">
          <mxGeometry x="410" y="620" width="170" height="50" as="geometry" />
        </mxCell>
        <mxCell id="9L50VuXP9v0viQyTFFjq-3" value="&lt;b style=&quot;&quot;&gt;Press the power switch. An LED will be ON(Green/Red)&lt;/b&gt;" style="rounded=0;whiteSpace=wrap;html=1;fontSize=12;glass=0;strokeWidth=1;shadow=0;" vertex="1" parent="WIyWlLk6GJQsqaUBKTNV-1">
          <mxGeometry x="410" y="730" width="170" height="50" as="geometry" />
        </mxCell>
        <mxCell id="9L50VuXP9v0viQyTFFjq-4" value="&lt;div&gt;&lt;b&gt;&lt;font color=&quot;#ff8000&quot;&gt;Press the power button to enable/disable power delivery to the control unit.&amp;nbsp;&lt;/font&gt;&lt;/b&gt;&lt;/div&gt;" style="rounded=0;whiteSpace=wrap;html=1;fontSize=12;glass=0;strokeWidth=1;shadow=0;" vertex="1" parent="WIyWlLk6GJQsqaUBKTNV-1">
          <mxGeometry x="939" y="488.75" width="170" height="50" as="geometry" />
        </mxCell>
        <mxCell id="9L50VuXP9v0viQyTFFjq-5" value="&lt;b&gt;The robot is halted and waiting for operator to press left/right button&lt;/b&gt;" style="rounded=0;whiteSpace=wrap;html=1;fontSize=12;glass=0;strokeWidth=1;shadow=0;" vertex="1" parent="WIyWlLk6GJQsqaUBKTNV-1">
          <mxGeometry x="645" y="690" width="170" height="50" as="geometry" />
        </mxCell>
        <mxCell id="9L50VuXP9v0viQyTFFjq-6" value="&lt;b&gt;&lt;font color=&quot;#ff8000&quot;&gt;Toggle the right gimbal of the transmitter for movement.&lt;/font&gt;&lt;/b&gt;" style="rounded=0;whiteSpace=wrap;html=1;fontSize=12;glass=0;strokeWidth=1;shadow=0;" vertex="1" parent="WIyWlLk6GJQsqaUBKTNV-1">
          <mxGeometry x="1074" y="133.75" width="170" height="50" as="geometry" />
        </mxCell>
        <mxCell id="9L50VuXP9v0viQyTFFjq-7" value="" style="endArrow=classic;html=1;rounded=0;exitX=0.5;exitY=1;exitDx=0;exitDy=0;entryX=0.5;entryY=0;entryDx=0;entryDy=0;" edge="1" parent="WIyWlLk6GJQsqaUBKTNV-1">
          <mxGeometry width="50" height="50" relative="1" as="geometry">
            <mxPoint x="495" y="370.9999999999999" as="sourcePoint" />
            <mxPoint x="495" y="420.9999999999999" as="targetPoint" />
          </mxGeometry>
        </mxCell>
        <mxCell id="9L50VuXP9v0viQyTFFjq-8" value="&lt;font style=&quot;font-size: 14px;&quot;&gt;&lt;b&gt;Start&lt;/b&gt;&lt;/font&gt;" style="ellipse;whiteSpace=wrap;html=1;" vertex="1" parent="WIyWlLk6GJQsqaUBKTNV-1">
          <mxGeometry x="435" y="120" width="120" height="80" as="geometry" />
        </mxCell>
        <mxCell id="9L50VuXP9v0viQyTFFjq-9" value="&lt;span style=&quot;font-family: Arial, sans-serif; white-space-collapse: preserve;&quot;&gt;&lt;font&gt;&lt;b&gt;Commissioning  Unicorn SA is complete?&lt;/b&gt;&lt;/font&gt;&lt;/span&gt;" style="rhombus;whiteSpace=wrap;html=1;" vertex="1" parent="WIyWlLk6GJQsqaUBKTNV-1">
          <mxGeometry x="430" y="250" width="130" height="120" as="geometry" />
        </mxCell>
        <mxCell id="9L50VuXP9v0viQyTFFjq-10" value="" style="endArrow=classic;html=1;rounded=0;exitX=0.5;exitY=1;exitDx=0;exitDy=0;" edge="1" parent="WIyWlLk6GJQsqaUBKTNV-1">
          <mxGeometry width="50" height="50" relative="1" as="geometry">
            <mxPoint x="494.40999999999997" y="199.9999999999999" as="sourcePoint" />
            <mxPoint x="494" y="250" as="targetPoint" />
          </mxGeometry>
        </mxCell>
        <mxCell id="9L50VuXP9v0viQyTFFjq-11" value="&lt;font style=&quot;font-size: 14px;&quot;&gt;&lt;b&gt;YES&lt;/b&gt;&lt;/font&gt;" style="text;html=1;align=center;verticalAlign=middle;whiteSpace=wrap;rounded=0;" vertex="1" parent="WIyWlLk6GJQsqaUBKTNV-1">
          <mxGeometry x="495" y="360" width="60" height="30" as="geometry" />
        </mxCell>
        <mxCell id="9L50VuXP9v0viQyTFFjq-12" value="&lt;font style=&quot;font-size: 14px;&quot;&gt;&lt;b&gt;NO&lt;/b&gt;&lt;/font&gt;" style="text;html=1;align=center;verticalAlign=middle;whiteSpace=wrap;rounded=0;" vertex="1" parent="WIyWlLk6GJQsqaUBKTNV-1">
          <mxGeometry x="370" y="280" width="60" height="30" as="geometry" />
        </mxCell>
        <mxCell id="9L50VuXP9v0viQyTFFjq-13" value="" style="endArrow=classic;html=1;rounded=0;exitX=0.5;exitY=1;exitDx=0;exitDy=0;entryX=0.5;entryY=0;entryDx=0;entryDy=0;" edge="1" parent="WIyWlLk6GJQsqaUBKTNV-1">
          <mxGeometry width="50" height="50" relative="1" as="geometry">
            <mxPoint x="495" y="472.9999999999999" as="sourcePoint" />
            <mxPoint x="495" y="533" as="targetPoint" />
          </mxGeometry>
        </mxCell>
        <mxCell id="9L50VuXP9v0viQyTFFjq-14" value="" style="endArrow=classic;html=1;rounded=0;exitX=0.5;exitY=1;exitDx=0;exitDy=0;entryX=0.5;entryY=0;entryDx=0;entryDy=0;" edge="1" parent="WIyWlLk6GJQsqaUBKTNV-1">
          <mxGeometry width="50" height="50" relative="1" as="geometry">
            <mxPoint x="495" y="559.9999999999999" as="sourcePoint" />
            <mxPoint x="495" y="620" as="targetPoint" />
          </mxGeometry>
        </mxCell>
        <mxCell id="9L50VuXP9v0viQyTFFjq-15" value="" style="endArrow=classic;html=1;rounded=0;exitX=0.5;exitY=1;exitDx=0;exitDy=0;entryX=0.5;entryY=0;entryDx=0;entryDy=0;" edge="1" parent="WIyWlLk6GJQsqaUBKTNV-1">
          <mxGeometry width="50" height="50" relative="1" as="geometry">
            <mxPoint x="495" y="669.9999999999999" as="sourcePoint" />
            <mxPoint x="495" y="730" as="targetPoint" />
          </mxGeometry>
        </mxCell>
        <mxCell id="9L50VuXP9v0viQyTFFjq-16" value="" style="endArrow=classic;html=1;rounded=0;exitX=0.5;exitY=1;exitDx=0;exitDy=0;entryX=0.5;entryY=0;entryDx=0;entryDy=0;" edge="1" parent="WIyWlLk6GJQsqaUBKTNV-1">
          <mxGeometry width="50" height="50" relative="1" as="geometry">
            <mxPoint x="494.99999999999994" y="778.9999999999999" as="sourcePoint" />
            <mxPoint x="494.99999999999994" y="839" as="targetPoint" />
          </mxGeometry>
        </mxCell>
        <mxCell id="9L50VuXP9v0viQyTFFjq-19" value="" style="endArrow=classic;html=1;rounded=0;exitX=1;exitY=0.5;exitDx=0;exitDy=0;" edge="1" parent="WIyWlLk6GJQsqaUBKTNV-1">
          <mxGeometry width="50" height="50" relative="1" as="geometry">
            <mxPoint x="580.0000000000001" y="1020" as="sourcePoint" />
            <mxPoint x="730" y="970" as="targetPoint" />
            <Array as="points">
              <mxPoint x="730" y="1020" />
            </Array>
          </mxGeometry>
        </mxCell>
        <mxCell id="9L50VuXP9v0viQyTFFjq-23" value="&lt;b&gt;Press the left/right button once for one second and release. Depending upon button press the robot will move either leftward or rightward.&lt;/b&gt;" style="rounded=0;whiteSpace=wrap;html=1;fontSize=12;glass=0;strokeWidth=1;shadow=0;" vertex="1" parent="WIyWlLk6GJQsqaUBKTNV-1">
          <mxGeometry x="410" y="839" width="170" height="90" as="geometry" />
        </mxCell>
        <mxCell id="9L50VuXP9v0viQyTFFjq-24" value="" style="endArrow=classic;html=1;rounded=0;entryX=1;entryY=0.5;entryDx=0;entryDy=0;" edge="1" parent="WIyWlLk6GJQsqaUBKTNV-1">
          <mxGeometry width="50" height="50" relative="1" as="geometry">
            <mxPoint x="1455" y="977.4200000000001" as="sourcePoint" />
            <mxPoint x="1415" y="977.4200000000001" as="targetPoint" />
          </mxGeometry>
        </mxCell>
        <mxCell id="9L50VuXP9v0viQyTFFjq-25" value="&lt;font style=&quot;font-size: 14px;&quot;&gt;&lt;b&gt;NO&lt;/b&gt;&lt;/font&gt;" style="text;html=1;align=center;verticalAlign=middle;whiteSpace=wrap;rounded=0;" vertex="1" parent="WIyWlLk6GJQsqaUBKTNV-1">
          <mxGeometry x="1405" y="943.5" width="60" height="30" as="geometry" />
        </mxCell>
        <mxCell id="9L50VuXP9v0viQyTFFjq-26" value="" style="endArrow=classic;html=1;rounded=0;exitX=0.5;exitY=1;exitDx=0;exitDy=0;entryX=0.5;entryY=1;entryDx=0;entryDy=0;" edge="1" parent="WIyWlLk6GJQsqaUBKTNV-1" target="9L50VuXP9v0viQyTFFjq-36">
          <mxGeometry width="50" height="50" relative="1" as="geometry">
            <mxPoint x="1024" y="728.7499999999999" as="sourcePoint" />
            <mxPoint x="1024.48" y="669.75" as="targetPoint" />
          </mxGeometry>
        </mxCell>
        <mxCell id="9L50VuXP9v0viQyTFFjq-27" value="&lt;div&gt;&lt;b&gt;Reset button is&amp;nbsp;&lt;/b&gt;&lt;/div&gt;&lt;div&gt;&lt;b&gt;pressed&amp;nbsp;&lt;/b&gt;&lt;b style=&quot;background-color: initial;&quot;&gt;or&amp;nbsp;&lt;/b&gt;&lt;/div&gt;&lt;div&gt;&lt;b style=&quot;background-color: initial;&quot;&gt;end/destination&amp;nbsp;&lt;/b&gt;&lt;/div&gt;&lt;div&gt;&lt;b&gt;plate is detected by the sensor?&lt;/b&gt;&lt;/div&gt;&lt;div&gt;&lt;br&gt;&lt;/div&gt;" style="rhombus;whiteSpace=wrap;html=1;" vertex="1" parent="WIyWlLk6GJQsqaUBKTNV-1">
          <mxGeometry x="645" y="799" width="170" height="170" as="geometry" />
        </mxCell>
        <mxCell id="9L50VuXP9v0viQyTFFjq-28" value="" style="endArrow=classic;html=1;rounded=0;exitX=0.5;exitY=1;exitDx=0;exitDy=0;" edge="1" parent="WIyWlLk6GJQsqaUBKTNV-1">
          <mxGeometry width="50" height="50" relative="1" as="geometry">
            <mxPoint x="729.76" y="798.9999999999999" as="sourcePoint" />
            <mxPoint x="730.24" y="740" as="targetPoint" />
          </mxGeometry>
        </mxCell>
        <mxCell id="9L50VuXP9v0viQyTFFjq-29" value="&lt;font style=&quot;font-size: 14px;&quot;&gt;&lt;b&gt;YES&lt;/b&gt;&lt;/font&gt;" style="text;html=1;align=center;verticalAlign=middle;whiteSpace=wrap;rounded=0;" vertex="1" parent="WIyWlLk6GJQsqaUBKTNV-1">
          <mxGeometry x="690" y="780" width="30" height="4" as="geometry" />
        </mxCell>
        <mxCell id="9L50VuXP9v0viQyTFFjq-30" value="&lt;font style=&quot;font-size: 14px;&quot;&gt;&lt;b&gt;NO&lt;/b&gt;&lt;/font&gt;" style="text;html=1;align=center;verticalAlign=middle;whiteSpace=wrap;rounded=0;" vertex="1" parent="WIyWlLk6GJQsqaUBKTNV-1">
          <mxGeometry x="815" y="870" width="35" height="4.5" as="geometry" />
        </mxCell>
        <mxCell id="9L50VuXP9v0viQyTFFjq-31" value="" style="endArrow=classic;html=1;rounded=0;exitX=1;exitY=0.5;exitDx=0;exitDy=0;" edge="1" parent="WIyWlLk6GJQsqaUBKTNV-1" source="9L50VuXP9v0viQyTFFjq-27">
          <mxGeometry width="50" height="50" relative="1" as="geometry">
            <mxPoint x="793.8100000000002" y="830" as="sourcePoint" />
            <mxPoint x="880" y="884" as="targetPoint" />
          </mxGeometry>
        </mxCell>
        <mxCell id="9L50VuXP9v0viQyTFFjq-32" value="" style="rounded=0;whiteSpace=wrap;html=1;fontSize=12;glass=0;strokeWidth=1;shadow=0;" vertex="1" parent="WIyWlLk6GJQsqaUBKTNV-1">
          <mxGeometry x="881" y="859" width="70" height="50" as="geometry" />
        </mxCell>
        <mxCell id="9L50VuXP9v0viQyTFFjq-33" value="" style="endArrow=classic;html=1;rounded=0;" edge="1" parent="WIyWlLk6GJQsqaUBKTNV-1">
          <mxGeometry width="50" height="50" relative="1" as="geometry">
            <mxPoint x="895" y="1054.5" as="sourcePoint" />
            <mxPoint x="895" y="1023.5" as="targetPoint" />
            <Array as="points">
              <mxPoint x="895" y="1044.5" />
            </Array>
          </mxGeometry>
        </mxCell>
        <mxCell id="9L50VuXP9v0viQyTFFjq-34" value="" style="endArrow=none;html=1;rounded=0;" edge="1" parent="WIyWlLk6GJQsqaUBKTNV-1">
          <mxGeometry width="50" height="50" relative="1" as="geometry">
            <mxPoint x="1055" y="1054.5" as="sourcePoint" />
            <mxPoint x="1055" y="961.5" as="targetPoint" />
          </mxGeometry>
        </mxCell>
        <mxCell id="9L50VuXP9v0viQyTFFjq-35" value="" style="endArrow=none;html=1;rounded=0;" edge="1" parent="WIyWlLk6GJQsqaUBKTNV-1">
          <mxGeometry width="50" height="50" relative="1" as="geometry">
            <mxPoint x="895" y="1054.5" as="sourcePoint" />
            <mxPoint x="1055" y="1054.5" as="targetPoint" />
          </mxGeometry>
        </mxCell>
        <mxCell id="9L50VuXP9v0viQyTFFjq-36" value="&lt;b&gt;&lt;font color=&quot;#ff8000&quot;&gt;Transmitter is&amp;nbsp;&lt;/font&gt;&lt;/b&gt;&lt;div&gt;&lt;b&gt;&lt;font color=&quot;#ff8000&quot;&gt;fully charged?&lt;/font&gt;&lt;/b&gt;&lt;/div&gt;" style="rhombus;whiteSpace=wrap;html=1;" vertex="1" parent="WIyWlLk6GJQsqaUBKTNV-1">
          <mxGeometry x="959" y="582.75" width="130" height="100" as="geometry" />
        </mxCell>
        <mxCell id="9L50VuXP9v0viQyTFFjq-37" value="" style="endArrow=classic;html=1;rounded=0;exitX=0.5;exitY=1;exitDx=0;exitDy=0;" edge="1" parent="WIyWlLk6GJQsqaUBKTNV-1">
          <mxGeometry width="50" height="50" relative="1" as="geometry">
            <mxPoint x="1024" y="488.7499999999999" as="sourcePoint" />
            <mxPoint x="1024.48" y="429.75" as="targetPoint" />
          </mxGeometry>
        </mxCell>
        <mxCell id="9L50VuXP9v0viQyTFFjq-38" value="&lt;b&gt;&lt;font color=&quot;#ff8000&quot;&gt;Visually check the&amp;nbsp;&lt;/font&gt;&lt;/b&gt;&lt;div&gt;&lt;b&gt;&lt;font color=&quot;#ff8000&quot;&gt;signal strength of receiver&amp;nbsp;&lt;/font&gt;&lt;/b&gt;&lt;/div&gt;&lt;div&gt;&lt;b&gt;&lt;font color=&quot;#ff8000&quot;&gt;is displayed on the&amp;nbsp;&lt;/font&gt;&lt;/b&gt;&lt;div&gt;&lt;b&gt;&lt;font color=&quot;#ff8000&quot;&gt;transmitter?&lt;/font&gt;&lt;/b&gt;&lt;/div&gt;&lt;/div&gt;" style="rhombus;whiteSpace=wrap;html=1;" vertex="1" parent="WIyWlLk6GJQsqaUBKTNV-1">
          <mxGeometry x="944" y="289.75" width="160" height="140" as="geometry" />
        </mxCell>
        <mxCell id="9L50VuXP9v0viQyTFFjq-39" value="&lt;div&gt;&lt;b&gt;&lt;font color=&quot;#ff8000&quot;&gt;Charge the battery.&lt;/font&gt;&lt;/b&gt;&lt;/div&gt;" style="rounded=0;whiteSpace=wrap;html=1;fontSize=12;glass=0;strokeWidth=1;shadow=0;" vertex="1" parent="WIyWlLk6GJQsqaUBKTNV-1">
          <mxGeometry x="1134" y="607.75" width="70" height="50" as="geometry" />
        </mxCell>
        <mxCell id="9L50VuXP9v0viQyTFFjq-40" value="&lt;font style=&quot;font-size: 14px;&quot;&gt;&lt;b&gt;NO&lt;/b&gt;&lt;/font&gt;" style="text;html=1;align=center;verticalAlign=middle;whiteSpace=wrap;rounded=0;" vertex="1" parent="WIyWlLk6GJQsqaUBKTNV-1">
          <mxGeometry x="1074" y="598.75" width="60" height="30" as="geometry" />
        </mxCell>
        <mxCell id="9L50VuXP9v0viQyTFFjq-41" value="&lt;font style=&quot;font-size: 14px;&quot;&gt;&lt;b&gt;YES&lt;/b&gt;&lt;/font&gt;" style="text;html=1;align=center;verticalAlign=middle;whiteSpace=wrap;rounded=0;" vertex="1" parent="WIyWlLk6GJQsqaUBKTNV-1">
          <mxGeometry x="1024" y="238.75" width="60" height="30" as="geometry" />
        </mxCell>
        <mxCell id="9L50VuXP9v0viQyTFFjq-42" value="&lt;b&gt;&lt;font color=&quot;#ff8000&quot;&gt;Toggle the left gimbal of the transmitter for turning ON/OFF rotation of cleaning brushes.&lt;/font&gt;&lt;/b&gt;" style="rounded=0;whiteSpace=wrap;html=1;fontSize=12;glass=0;strokeWidth=1;shadow=0;" vertex="1" parent="WIyWlLk6GJQsqaUBKTNV-1">
          <mxGeometry x="1074" y="48.75" width="170" height="60" as="geometry" />
        </mxCell>
        <mxCell id="9L50VuXP9v0viQyTFFjq-43" value="&lt;font style=&quot;font-size: 14px;&quot;&gt;&lt;b&gt;NO&lt;/b&gt;&lt;/font&gt;" style="text;html=1;align=center;verticalAlign=middle;whiteSpace=wrap;rounded=0;" vertex="1" parent="WIyWlLk6GJQsqaUBKTNV-1">
          <mxGeometry x="1089" y="328.75" width="60" height="30" as="geometry" />
        </mxCell>
        <mxCell id="9L50VuXP9v0viQyTFFjq-44" value="&lt;font style=&quot;font-size: 14px;&quot;&gt;&lt;b&gt;Stop&lt;/b&gt;&lt;/font&gt;" style="ellipse;whiteSpace=wrap;html=1;" vertex="1" parent="WIyWlLk6GJQsqaUBKTNV-1">
          <mxGeometry x="1519" y="258.75" width="120" height="80" as="geometry" />
        </mxCell>
        <mxCell id="9L50VuXP9v0viQyTFFjq-47" value="&lt;font color=&quot;#ff8000&quot; face=&quot;Arial, sans-serif&quot;&gt;&lt;span style=&quot;white-space-collapse: preserve;&quot;&gt;&lt;b&gt;Facing Issues in &lt;/b&gt;&lt;/span&gt;&lt;/font&gt;&lt;div&gt;&lt;font color=&quot;#ff8000&quot; face=&quot;Arial, sans-serif&quot;&gt;&lt;span style=&quot;white-space-collapse: preserve;&quot;&gt;&lt;b&gt;any component during operation?&lt;/b&gt;&lt;/span&gt;&lt;/font&gt;&lt;/div&gt;" style="rhombus;whiteSpace=wrap;html=1;" vertex="1" parent="WIyWlLk6GJQsqaUBKTNV-1">
          <mxGeometry x="1314" y="58.75" width="150" height="125" as="geometry" />
        </mxCell>
        <mxCell id="9L50VuXP9v0viQyTFFjq-48" value="&lt;font style=&quot;font-size: 14px;&quot;&gt;&lt;b&gt;NO&lt;/b&gt;&lt;/font&gt;" style="text;html=1;align=center;verticalAlign=middle;whiteSpace=wrap;rounded=0;" vertex="1" parent="WIyWlLk6GJQsqaUBKTNV-1">
          <mxGeometry x="1454" y="88.75" width="60" height="30" as="geometry" />
        </mxCell>
        <mxCell id="9L50VuXP9v0viQyTFFjq-49" value="&lt;font style=&quot;font-size: 14px;&quot;&gt;&lt;b&gt;YES&lt;/b&gt;&lt;/font&gt;" style="text;html=1;align=center;verticalAlign=middle;whiteSpace=wrap;rounded=0;" vertex="1" parent="WIyWlLk6GJQsqaUBKTNV-1">
          <mxGeometry x="1381" y="198.75" width="60" height="30" as="geometry" />
        </mxCell>
        <mxCell id="9L50VuXP9v0viQyTFFjq-50" value="&lt;b&gt;&lt;font color=&quot;#ff8000&quot;&gt;Follow Troubleshooting Document.&lt;/font&gt;&lt;/b&gt;" style="rounded=0;whiteSpace=wrap;html=1;fontSize=12;glass=0;strokeWidth=1;shadow=0;" vertex="1" parent="WIyWlLk6GJQsqaUBKTNV-1">
          <mxGeometry x="1309" y="278.75" width="160" height="50" as="geometry" />
        </mxCell>
        <mxCell id="9L50VuXP9v0viQyTFFjq-51" value="" style="endArrow=classic;html=1;rounded=0;exitX=0.5;exitY=1;exitDx=0;exitDy=0;" edge="1" parent="WIyWlLk6GJQsqaUBKTNV-1" source="9L50VuXP9v0viQyTFFjq-47">
          <mxGeometry width="50" height="50" relative="1" as="geometry">
            <mxPoint x="1354" y="183.74999999999997" as="sourcePoint" />
            <mxPoint x="1389" y="278.75" as="targetPoint" />
            <Array as="points">
              <mxPoint x="1389" y="258.75" />
              <mxPoint x="1389" y="268.75" />
              <mxPoint x="1389" y="278.75" />
            </Array>
          </mxGeometry>
        </mxCell>
        <mxCell id="9L50VuXP9v0viQyTFFjq-52" value="" style="endArrow=classic;html=1;rounded=0;entryX=0;entryY=0.5;entryDx=0;entryDy=0;" edge="1" parent="WIyWlLk6GJQsqaUBKTNV-1" target="9L50VuXP9v0viQyTFFjq-47">
          <mxGeometry relative="1" as="geometry">
            <mxPoint x="1244" y="73.75" as="sourcePoint" />
            <mxPoint x="1394" y="73.25" as="targetPoint" />
            <Array as="points">
              <mxPoint x="1284" y="73.75" />
            </Array>
          </mxGeometry>
        </mxCell>
        <mxCell id="9L50VuXP9v0viQyTFFjq-53" value="" style="endArrow=classic;html=1;rounded=0;entryX=0;entryY=0.5;entryDx=0;entryDy=0;exitX=1.004;exitY=0.602;exitDx=0;exitDy=0;exitPerimeter=0;" edge="1" parent="WIyWlLk6GJQsqaUBKTNV-1" source="9L50VuXP9v0viQyTFFjq-6" target="9L50VuXP9v0viQyTFFjq-47">
          <mxGeometry relative="1" as="geometry">
            <mxPoint x="1234" y="163.25" as="sourcePoint" />
            <mxPoint x="1394" y="208.75" as="targetPoint" />
            <Array as="points">
              <mxPoint x="1284" y="163.75" />
            </Array>
          </mxGeometry>
        </mxCell>
        <mxCell id="9L50VuXP9v0viQyTFFjq-54" value="&lt;font color=&quot;#ff8000&quot; face=&quot;Arial, sans-serif&quot;&gt;&lt;span style=&quot;white-space-collapse: preserve;&quot;&gt;&lt;b&gt;Need to continue Operating &lt;/b&gt;&lt;/span&gt;&lt;/font&gt;&lt;div&gt;&lt;font color=&quot;#ff8000&quot; face=&quot;Arial, sans-serif&quot;&gt;&lt;span style=&quot;white-space-collapse: preserve;&quot;&gt;&lt;b&gt;Shreem SA?&lt;/b&gt;&lt;/span&gt;&lt;/font&gt;&lt;/div&gt;" style="rhombus;whiteSpace=wrap;html=1;align=center;" vertex="1" parent="WIyWlLk6GJQsqaUBKTNV-1">
          <mxGeometry x="1504" y="61.25" width="150" height="120" as="geometry" />
        </mxCell>
        <mxCell id="9L50VuXP9v0viQyTFFjq-55" value="" style="endArrow=classic;html=1;rounded=0;exitX=0.996;exitY=0.499;exitDx=0;exitDy=0;entryX=-0.01;entryY=0.502;entryDx=0;entryDy=0;entryPerimeter=0;exitPerimeter=0;" edge="1" parent="WIyWlLk6GJQsqaUBKTNV-1">
          <mxGeometry width="50" height="50" relative="1" as="geometry">
            <mxPoint x="1464" y="121.065" as="sourcePoint" />
            <mxPoint x="1504.1" y="121.43" as="targetPoint" />
          </mxGeometry>
        </mxCell>
        <mxCell id="9L50VuXP9v0viQyTFFjq-56" value="" style="endArrow=classic;html=1;rounded=0;" edge="1" parent="WIyWlLk6GJQsqaUBKTNV-1">
          <mxGeometry width="50" height="50" relative="1" as="geometry">
            <mxPoint x="1579" y="178.75" as="sourcePoint" />
            <mxPoint x="1578.9399999999998" y="258.75" as="targetPoint" />
            <Array as="points">
              <mxPoint x="1578.9399999999998" y="238.75" />
              <mxPoint x="1578.9399999999998" y="248.75" />
            </Array>
          </mxGeometry>
        </mxCell>
        <mxCell id="9L50VuXP9v0viQyTFFjq-57" value="&lt;font style=&quot;font-size: 14px;&quot;&gt;&lt;b&gt;NO&lt;/b&gt;&lt;/font&gt;" style="text;html=1;align=center;verticalAlign=middle;whiteSpace=wrap;rounded=0;" vertex="1" parent="WIyWlLk6GJQsqaUBKTNV-1">
          <mxGeometry x="1564" y="198.75" width="60" height="30" as="geometry" />
        </mxCell>
        <mxCell id="9L50VuXP9v0viQyTFFjq-58" value="&lt;font style=&quot;font-size: 14px;&quot;&gt;&lt;b&gt;YES&lt;/b&gt;&lt;/font&gt;" style="text;html=1;align=center;verticalAlign=middle;whiteSpace=wrap;rounded=0;" vertex="1" parent="WIyWlLk6GJQsqaUBKTNV-1">
          <mxGeometry x="1519" y="31.25" width="60" height="30" as="geometry" />
        </mxCell>
        <mxCell id="9L50VuXP9v0viQyTFFjq-59" value="" style="endArrow=classic;html=1;rounded=0;entryX=0;entryY=0.5;entryDx=0;entryDy=0;entryPerimeter=0;" edge="1" parent="WIyWlLk6GJQsqaUBKTNV-1" target="9L50VuXP9v0viQyTFFjq-65">
          <mxGeometry relative="1" as="geometry">
            <mxPoint x="1579" y="63.75" as="sourcePoint" />
            <mxPoint x="1024" y="71.25" as="targetPoint" />
            <Array as="points">
              <mxPoint x="1579" y="21.25" />
              <mxPoint x="1024" y="21.25" />
              <mxPoint x="1024" y="98.75" />
            </Array>
          </mxGeometry>
        </mxCell>
        <mxCell id="9L50VuXP9v0viQyTFFjq-60" value="" style="endArrow=classic;html=1;rounded=0;exitX=0.5;exitY=1;exitDx=0;exitDy=0;" edge="1" parent="WIyWlLk6GJQsqaUBKTNV-1">
          <mxGeometry width="50" height="50" relative="1" as="geometry">
            <mxPoint x="1024" y="582.7499999999999" as="sourcePoint" />
            <mxPoint x="1024" y="538.75" as="targetPoint" />
          </mxGeometry>
        </mxCell>
        <mxCell id="9L50VuXP9v0viQyTFFjq-61" value="&lt;font style=&quot;font-size: 14px;&quot;&gt;&lt;b&gt;YES&lt;/b&gt;&lt;/font&gt;" style="text;html=1;align=center;verticalAlign=middle;whiteSpace=wrap;rounded=0;" vertex="1" parent="WIyWlLk6GJQsqaUBKTNV-1">
          <mxGeometry x="974" y="552.75" width="60" height="30" as="geometry" />
        </mxCell>
        <mxCell id="9L50VuXP9v0viQyTFFjq-63" value="" style="endArrow=classic;html=1;rounded=0;" edge="1" parent="WIyWlLk6GJQsqaUBKTNV-1">
          <mxGeometry width="50" height="50" relative="1" as="geometry">
            <mxPoint x="1089" y="632.3199999999999" as="sourcePoint" />
            <mxPoint x="1134" y="632.75" as="targetPoint" />
          </mxGeometry>
        </mxCell>
        <mxCell id="9L50VuXP9v0viQyTFFjq-64" value="" style="endArrow=classic;html=1;rounded=0;entryX=1;entryY=0.5;entryDx=0;entryDy=0;" edge="1" parent="WIyWlLk6GJQsqaUBKTNV-1" target="9L50VuXP9v0viQyTFFjq-4">
          <mxGeometry relative="1" as="geometry">
            <mxPoint x="1104" y="358.75" as="sourcePoint" />
            <mxPoint x="1264" y="358.75" as="targetPoint" />
            <Array as="points">
              <mxPoint x="1154" y="358.75" />
              <mxPoint x="1154" y="513.75" />
            </Array>
          </mxGeometry>
        </mxCell>
        <mxCell id="9L50VuXP9v0viQyTFFjq-65" value="" style="strokeWidth=2;html=1;shape=mxgraph.flowchart.annotation_2;align=left;labelPosition=right;pointerEvents=1;" vertex="1" parent="WIyWlLk6GJQsqaUBKTNV-1">
          <mxGeometry x="1034" y="78.75" width="40" height="80" as="geometry" />
        </mxCell>
        <mxCell id="9L50VuXP9v0viQyTFFjq-66" value="" style="endArrow=classic;html=1;rounded=0;entryX=0;entryY=0.5;entryDx=0;entryDy=0;entryPerimeter=0;" edge="1" parent="WIyWlLk6GJQsqaUBKTNV-1" target="9L50VuXP9v0viQyTFFjq-65">
          <mxGeometry relative="1" as="geometry">
            <mxPoint x="1024" y="288.75" as="sourcePoint" />
            <mxPoint x="1109" y="213.45" as="targetPoint" />
            <Array as="points">
              <mxPoint x="1024" y="128.75" />
            </Array>
          </mxGeometry>
        </mxCell>
        <mxCell id="9L50VuXP9v0viQyTFFjq-67" value="&lt;font face=&quot;Arial, sans-serif&quot;&gt;&lt;span style=&quot;white-space-collapse: preserve;&quot;&gt;&lt;b&gt;Refer the commissioning manual. &lt;/b&gt;&lt;/span&gt;&lt;/font&gt;" style="rounded=0;whiteSpace=wrap;html=1;fontSize=12;glass=0;strokeWidth=1;shadow=0;" vertex="1" parent="WIyWlLk6GJQsqaUBKTNV-1">
          <mxGeometry x="240" y="291" width="120" height="50" as="geometry" />
        </mxCell>
        <mxCell id="9L50VuXP9v0viQyTFFjq-68" value="" style="endArrow=classic;html=1;rounded=0;entryX=1;entryY=0.5;entryDx=0;entryDy=0;exitX=1;exitY=1;exitDx=0;exitDy=0;" edge="1" parent="WIyWlLk6GJQsqaUBKTNV-1" source="9L50VuXP9v0viQyTFFjq-12">
          <mxGeometry width="50" height="50" relative="1" as="geometry">
            <mxPoint x="400" y="310" as="sourcePoint" />
            <mxPoint x="360" y="310" as="targetPoint" />
          </mxGeometry>
        </mxCell>
        <mxCell id="9L50VuXP9v0viQyTFFjq-71" value="" style="endArrow=classic;html=1;rounded=0;" edge="1" parent="WIyWlLk6GJQsqaUBKTNV-1">
          <mxGeometry relative="1" as="geometry">
            <mxPoint x="304" y="291" as="sourcePoint" />
            <mxPoint x="494" y="220" as="targetPoint" />
            <Array as="points">
              <mxPoint x="304" y="220" />
            </Array>
          </mxGeometry>
        </mxCell>
        <mxCell id="9L50VuXP9v0viQyTFFjq-73" value="&lt;b style=&quot;&quot;&gt;Brush Motors will start and then Drive motors will start.&lt;/b&gt;" style="rounded=0;whiteSpace=wrap;html=1;fontSize=12;glass=0;strokeWidth=1;shadow=0;" vertex="1" parent="WIyWlLk6GJQsqaUBKTNV-1">
          <mxGeometry x="410" y="990" width="170" height="50" as="geometry" />
        </mxCell>
        <mxCell id="9L50VuXP9v0viQyTFFjq-74" value="" style="endArrow=classic;html=1;rounded=0;exitX=0.5;exitY=1;exitDx=0;exitDy=0;entryX=0.5;entryY=0;entryDx=0;entryDy=0;" edge="1" parent="WIyWlLk6GJQsqaUBKTNV-1">
          <mxGeometry width="50" height="50" relative="1" as="geometry">
            <mxPoint x="494.0899999999999" y="928.4999999999999" as="sourcePoint" />
            <mxPoint x="494.0899999999999" y="988.5" as="targetPoint" />
          </mxGeometry>
        </mxCell>
      </root>
    </mxGraphModel>
  </diagram>
</mxfile>
